<svg width="67" height="80" viewBox="0 0 67 80" fill="none" xmlns="http://www.w3.org/2000/svg">
<path d="M17.6 79.36L11.968 79.36L11.968 51.52L17.6 51.52L17.6 62.208L48 62.208L48 68.736L17.6 68.736L17.6 79.36ZM48 47.498L42.496 47.498L17.6 25.546L17.6 45.834L11.968 45.834L11.968 17.162L17.536 17.162L42.368 38.794L42.368 17.29L48 17.29L48 47.498Z" fill="black"/>
<path d="M48 7.981C48 9.55966 47.616 10.605 46.848 11.117C46.08 11.629 45.1413 11.885 44.032 11.885C43.008 11.885 42.112 11.629 41.344 11.117C40.576 10.5623 40.192 9.517 40.192 7.981C40.192 6.53033 40.576 5.549 41.344 5.037C42.112 4.48233 43.008 4.205 44.032 4.205C45.1413 4.205 46.08 4.48233 46.848 5.037C47.616 5.549 48 6.53033 48 7.981Z" fill="#FFDF3A"/>
</svg>
